<?xml version="1.0" encoding="UTF-8" standalone="no"?>
<svg
   id="Outline"
   viewBox="0 0 0.5625 0.5625"
   width="12"
   height="12"
   version="1.1"
   sodipodi:docname="check_mark.svg"
   inkscape:version="1.1.2 (b8e25be833, 2022-02-05)"
   xmlns:inkscape="http://www.inkscape.org/namespaces/inkscape"
   xmlns:sodipodi="http://sodipodi.sourceforge.net/DTD/sodipodi-0.dtd"
   xmlns="http://www.w3.org/2000/svg"
   xmlns:svg="http://www.w3.org/2000/svg">
  <defs
     id="defs9" />
  <sodipodi:namedview
     id="namedview7"
     pagecolor="#ffffff"
     bordercolor="#666666"
     borderopacity="1.0"
     inkscape:pageshadow="2"
     inkscape:pageopacity="0.0"
     inkscape:pagecheckerboard="0"
     showgrid="false"
     width="13px"
     inkscape:zoom="6.109375"
     inkscape:cx="-20.460358"
     inkscape:cy="47.631714"
     inkscape:window-width="1920"
     inkscape:window-height="986"
     inkscape:window-x="-11"
     inkscape:window-y="-11"
     inkscape:window-maximized="1"
     inkscape:current-layer="Outline" />
  <path
     d="M 0.4453125,0 H 0.1171875 A 0.11732812,0.11732812 0 0 0 0,0.1171875 v 0.328125 A 0.11732812,0.11732812 0 0 0 0.1171875,0.5625 h 0.328125 A 0.11732812,0.11732812 0 0 0 0.5625,0.4453125 V 0.1171875 A 0.11732812,0.11732812 0 0 0 0.4453125,0 Z M 0.515625,0.4453125 A 0.0703125,0.0703125 0 0 1 0.4453125,0.515625 H 0.1171875 A 0.0703125,0.0703125 0 0 1 0.046875,0.4453125 V 0.1171875 A 0.0703125,0.0703125 0 0 1 0.1171875,0.046875 h 0.328125 A 0.0703125,0.0703125 0 0 1 0.515625,0.1171875 Z"
     id="path2"
     style="stroke-width:0.0234375" />
  <path
     d="M 0.21874219,0.37310156 0.12689062,0.28125 a 0.0234375,0.0234375 0 0 0 -0.03314062,0 v 0 a 0.0234375,0.0234375 0 0 0 0,0.0331406 l 0.09185156,0.0918516 a 0.046875,0.046875 0 0 0 0.0663047,0 L 0.46875,0.18939844 a 0.0234375,0.0234375 0 0 0 0,-0.0331406 v 0 a 0.0234375,0.0234375 0 0 0 -0.0331406,0 z"
     id="path4"
     style="stroke-width:0.0234375" />
</svg>
