<?xml version="1.0" encoding="UTF-8" standalone="no"?>
<!-- Generator: Adobe Illustrator 21.0.2, SVG Export Plug-In . SVG Version: 6.00 Build 0)  -->

<svg
   version="1.1"
   id="Layer_1"
   x="0px"
   y="0px"
   viewBox="0 0 16 16"
   xml:space="preserve"
   sodipodi:docname="Tilda_Icons_20med_doctor.svg"
   width="16"
   height="16"
   inkscape:version="1.1.2 (b8e25be833, 2022-02-05)"
   xmlns:inkscape="http://www.inkscape.org/namespaces/inkscape"
   xmlns:sodipodi="http://sodipodi.sourceforge.net/DTD/sodipodi-0.dtd"
   xmlns="http://www.w3.org/2000/svg"
   xmlns:svg="http://www.w3.org/2000/svg"><defs
   id="defs13" /><sodipodi:namedview
   id="namedview11"
   pagecolor="#ffffff"
   bordercolor="#666666"
   borderopacity="1.0"
   inkscape:pageshadow="2"
   inkscape:pageopacity="0.0"
   inkscape:pagecheckerboard="0"
   showgrid="false"
   width="16px"
   inkscape:zoom="7.7617866"
   inkscape:cx="50.310582"
   inkscape:cy="40.068095"
   inkscape:window-width="1920"
   inkscape:window-height="986"
   inkscape:window-x="-11"
   inkscape:window-y="-11"
   inkscape:window-maximized="1"
   inkscape:current-layer="Layer_1" />
<g
   id="g8"
   transform="matrix(0.19452099,0,0,0.1622436,-1.7260496,-0.11217988)">
	<path
   d="m 50,60.8 c -17.008,0 -30.845,13.837 -30.845,30.845 0,0.829 0.671,1.5 1.5,1.5 h 58.69 c 0.829,0 1.5,-0.671 1.5,-1.5 C 80.845,74.637 67.008,60.8 50,60.8 Z M 22.195,90.145 C 22.977,75.486 35.15,63.8 50,63.8 c 14.85,0 27.023,11.686 27.805,26.345 z"
   id="path2" />
	<path
   d="m 49.491,58.057 c 9.838,0 17.843,-8.007 17.843,-17.85 0,-3.477 -1.003,-6.831 -2.89,-9.726 V 8.355 c 0,-0.829 -0.671,-1.5 -1.5,-1.5 H 36.04 c -0.829,0 -1.5,0.671 -1.5,1.5 v 22.116 c -1.892,2.901 -2.895,6.262 -2.895,9.736 -0.001,9.843 8.005,17.85 17.846,17.85 z M 37.539,9.856 H 61.443 V 29.803 H 37.539 Z m -0.91,22.946 h 25.729 c 1.295,2.245 1.976,4.784 1.976,7.405 -0.001,8.189 -6.659,14.85 -14.843,14.85 -8.186,0 -14.846,-6.662 -14.846,-14.85 0,-2.617 0.686,-5.157 1.984,-7.405 z"
   id="path4" />
	<path
   d="m 54.718,18.495 h -3.727 v -3.733 c 0,-0.829 -0.671,-1.5 -1.5,-1.5 -0.829,0 -1.5,0.671 -1.5,1.5 v 3.733 h -3.728 c -0.829,0 -1.5,0.671 -1.5,1.5 0,0.829 0.671,1.5 1.5,1.5 h 3.728 v 3.728 c 0,0.829 0.671,1.5 1.5,1.5 0.829,0 1.5,-0.671 1.5,-1.5 v -3.728 h 3.727 c 0.829,0 1.5,-0.671 1.5,-1.5 0,-0.829 -0.672,-1.5 -1.5,-1.5 z"
   id="path6" />
</g>
</svg>
